# xmcd
# 
# Track frame offsets:
#     150
#     23570
#     49105
#     74017
#     109235
#     131232
#     165602
#     193367
#     221597
# 
# Disc length: 3202
# 
# Revision: 1
# Processed by: cddbd v1.5.2PL0 Copyright (c) Steve Scherf et al.
# Submitted via: BonkEnc v1.0.8
# 
DISCID=8b0c8009
DTITLE=Dan Wall - Off The Wall
DYEAR=1997
DGENRE=Jazz
TTITLE0=13 Steps
TTITLE1=Black Ice
TTITLE2=I Didn't Know What Time It Was
TTITLE3=The Electric Ballroom
TTITLE4=Carol's Bridge
TTITLE5=The End of a Love Affair
TTITLE6=Zakatak
TTITLE7=Waltz for John
TTITLE8=Off the Wall
EXTD=YEAR: 1997
EXTT0=
EXTT1=
EXTT2=
EXTT3=
EXTT4=
EXTT5=
EXTT6=
EXTT7=
EXTT8=
PLAYORDER=
